<svg xmlns="http://www.w3.org/2000/svg" viewBox="0 0 455 160" width="455" height="160"><g transform="translate(-122.0 -106.0) rotate(0.0 531.5 187.0) scale(1.0 1.0)"><svg width="1063" height="374" viewBox="0 0 1063 374"><g><path fill="#FFF" d="M187.64 202.61v15.25l-58.08-22.08v-15.86l58.08-22.08v15.25l-52.34 19.03v-8.54l52.34 19.03Zm44.4 28.92q-9.27 0-16.71-4.21-7.44-4.21-11.77-11.78-4.33-7.56-4.33-17.81 0-10.37 4.33-17.93 4.33-7.57 11.77-11.71 7.44-4.15 16.71-4.15 8.3 0 14.52 3.66 6.22 3.66 9.64 11.1 3.42 7.44 3.42 19.03 0 11.47-3.3 18.97-3.29 7.51-9.45 11.17-6.16 3.66-14.83 3.66Zm3.3-15.62q4.63 0 8.42-2.2 3.78-2.19 6.04-6.28 2.25-4.09 2.25-9.7 0-5.73-2.25-9.76-2.26-4.02-6.04-6.22-3.79-2.2-8.42-2.2-4.76 0-8.54 2.2-3.78 2.2-6.04 6.22-2.26 4.03-2.26 9.76 0 5.61 2.26 9.7 2.26 4.09 6.04 6.28 3.78 2.2 8.54 2.2Zm35.38 14.64h-18.18v-13.42l.37-19.52-1.22-19.4v-38.18h19.03v90.52Zm74.42-34.77-58.07 22.08v-15.25l52.33-19.03v8.54l-52.33-19.03v-15.25l58.07 22.08v15.86Zm48.8 35.75q-11.23 0-19.7-4.4-8.48-4.39-13.12-12.01-4.64-7.63-4.64-17.39 0-9.88 4.58-17.51 4.57-7.62 12.5-11.95 7.93-4.33 17.94-4.33 9.64 0 17.38 4.08 7.75 4.09 12.26 11.72 4.52 7.62 4.52 18.24 0 1.09-.12 2.5-.13 1.4-.25 2.62h-53.31V192h43.31l-7.32 3.29q0-5.12-2.08-8.9-2.07-3.79-5.73-5.92-3.66-2.14-8.54-2.14-4.88 0-8.6 2.14-3.72 2.13-5.8 5.98-2.07 3.84-2.07 9.09v2.92q0 5.37 2.38 9.46 2.38 4.09 6.71 6.22 4.33 2.14 10.19 2.14 5.24 0 9.21-1.59 3.96-1.59 7.26-4.76l10.12 10.98q-4.51 5.13-11.34 7.87-6.84 2.75-15.74 2.75Zm98.45-.98h-58.56v-11.47l38.8-45.87 3.29 6.34h-41.23v-14.64h56.6v11.47l-38.79 45.87-3.42-6.34h43.31v14.64Zm43.43.98q-10.49 0-18.6-4.4-8.11-4.39-12.81-12.01-4.7-7.63-4.7-17.39 0-9.88 4.7-17.51 4.7-7.62 12.81-11.95 8.11-4.33 18.6-4.33 10.37 0 18.55 4.33 8.17 4.33 12.81 11.89 4.63 7.57 4.63 17.57 0 9.76-4.63 17.39-4.64 7.62-12.81 12.01-8.18 4.4-18.55 4.4Zm0-15.62q4.76 0 8.54-2.2 3.79-2.19 5.98-6.28 2.2-4.09 2.2-9.7 0-5.73-2.2-9.76-2.19-4.02-5.98-6.22-3.78-2.2-8.54-2.2-4.75 0-8.54 2.2-3.78 2.2-6.03 6.22-2.26 4.03-2.26 9.76 0 5.61 2.26 9.7 2.25 4.09 6.03 6.28 3.79 2.2 8.54 2.2Z"/></g></svg></g></svg>