<svg xmlns="http://www.w3.org/2000/svg" viewBox="0 0 1000 1000" width="1000" height="1000"><g transform="translate(154.0 193.0) rotate(0.0 363.0 334.0) scale(1.0006243565199773 1.0009275061771312)"><svg width="725.547" height="667.381" viewBox="0 0 725.547 667.381"><path d="M725.547 254.86v-91.076C725.547 73.329 652.219 0 561.764 0h-397.98C73.329 0 0 73.329 0 163.784v91.076c0 14.794 11.993 26.787 26.787 26.787C11.993 281.647 0 293.64 0 308.434v129.927a468.525 468.525 0 0 0 42.926 195.911l15.241 33.109h612.276l16.045-36.792a468.526 468.526 0 0 0 39.06-187.286V308.434c0-14.794-11.993-26.787-26.787-26.787 14.794 0 26.786-11.993 26.786-26.787z" fill="#36f"/></svg></g><g transform="translate(72.0 123.0) rotate(0.0 410.0 372.5) scale(1.0242292674762241 1.0237932294973382)"><svg width="800.602" height="727.686" viewBox="0 0 800.602 727.686"><ellipse cx="733.424" cy="364.302" fill="#006" rx="10.694" ry="5.918" transform="matrix(.955 -.2967 .2967 .955 -75.0584 233.9831)"/><path d="m106.965 420.981.805-9.944c3.949-48.782 39.047-89.383 86.745-100.347l94.45-21.709 44-46h118l40 54 91.884 11.485c41.812 5.227 77.176 33.428 91.576 73.028l16.541 45.487v110h-580z" fill="#006"/><path d="M703.539 405.463c.48-2.707 4.371-6.004 4.97-6.627" fill="none"/><path d="M116.964 375.757 28.232 590.828 5.084 649.375c-7.59 19.197.267 41.242 18.543 50.839 8.566 4.498 18.245 7.295 27.452 7.356 6.092.041 21.215.24 30.789.116l30.532-.23 151.12-324.359zm514.983-15.48c17.962-3.925 36.168 5.522 43.3 22.469l87.562 208.082 23.796 67.889c-1.539 19.32-23.245 68.691-47.643 68.853-6.092.041-15.789.116-15.789.116-18.652-.14-43.56-18.994-51.454-35.893L527.52 383.097z" fill="#006"/><path d="M581.263 330.975 547.092 718.36H177.078V330.975z" fill="#006"/><path d="M447.085 212.151v74.34c0 15.601-4.984 29.87-13.231 40.831-1.178 1.566 2.577 3.064 1.271 4.489-9.8 10.69-23.07 17.25-37.68 17.25h-17.99c-30.18 0-54.64-28.01-54.64-62.57v-74.34z" fill="#fff"/><path d="M452.085 212.151v74.34c0 17.83-6.51 33.92-16.96 45.32l-13.846-9.967a54.067 54.067 0 0 0-27.44-10.027l-3.987-.307a54.07 54.07 0 0 1-45.686-32.928l-12.606-29.938a85.74 85.74 0 0 1-6.717-32.658l-.028-3.836h127.27z" fill="#36f"/><path d="m487.54 153.426 12.769 2.63c8.03 1.654 13.111 9.61 11.234 17.591l-5.951 25.292a9.096 9.096 0 0 1-1.148 2.748l-10.633 16.944a9.084 9.084 0 0 1-16.639-6.406z" fill="#fff"/><path d="m436.444 4.35 22.545 3.975c42.528 7.499 70.924 48.053 63.425 90.581l-8.828 50.067-5.988 25.008-15.878 23.666-74.584-83.793z" fill="#006"/><path d="m387.608 282.816 38.519-218.45 80.348 14.167-29.565 155.062a37.403 37.403 0 0 1-15.287 23.633l-31.391 21.98a37.404 37.404 0 0 1-27.948 6.196z" fill="#fff"/><path d="m411.79 209.767.263-2.061c.24-1.879 2.474-2.738 3.91-1.502l5.368 4.618zm13.09-139.833 41.283 7.279c19.889 3.507 33.17 22.473 29.663 42.363l-7.383 41.869 24.141-30.762.612-54.836-67.723-33.677z" fill="#006"/><path d="m342.128 127.786-12.899-1.896c-8.112-1.193-15.608 4.546-16.573 12.688l-3.059 25.801a9.066 9.066 0 0 0 .139 2.975l4.196 19.559a9.084 9.084 0 0 0 17.827-.328z" fill="#fff"/><path d="m441.129 5.176-22.545-3.975c-42.528-7.499-83.082 20.898-90.581 63.425l-8.828 50.067 3.9 53.217 98.745-53.231z" fill="#006"/><path d="m391.779 283.552 38.519-218.45-80.348-14.168-25.253 155.821a37.404 37.404 0 0 0 6.282 27.436l21.98 31.391a37.403 37.403 0 0 0 24.143 15.381z" fill="#fff"/><path d="m420.431 1.296 18.275 2.933 9.123 1.553c3.043.535 6.073.989 9.136 1.651a93.07 93.07 0 0 1 17.832 5.574 99.088 99.088 0 0 1 16.341 9.08 99.291 99.291 0 0 1 14.259 12.068c4.36 4.447 8.397 9.208 11.996 14.282 3.587 5.076 6.747 10.466 9.746 15.833l8.985 16.182-1.017.585a106.452 106.452 0 0 1-7.026-6.632c-2.238-2.271-4.36-4.607-6.455-6.961-4.204-4.877-7.901-9.259-11.868-13.516-3.967-4.216-8.024-8.191-12.225-11.91-1.093-.882-2.077-1.878-3.16-2.757l-3.248-2.621c-2.193-1.693-4.366-3.409-6.672-4.918-.56-.401-1.11-.818-1.677-1.208l-1.736-1.112c-1.155-.747-2.307-1.501-3.502-2.173-1.186-.688-2.333-1.466-3.552-2.094-1.216-.636-2.434-1.272-3.633-1.961l-3.716-1.817-3.788-1.706c-1.254-.622-2.578-1.024-3.87-1.569-.648-.263-1.295-.544-1.951-.796l-1.992-.678c-1.337-.437-2.62-.974-4.165-1.435-1.482-.476-2.965-.946-4.438-1.476a230.542 230.542 0 0 1-8.827-3.231c-2.927-1.163-5.848-2.36-8.746-3.687a107.368 107.368 0 0 1-8.633-4.329z" fill="#006"/><path d="m408.231 136.51-6.912-10.633-47.065-8.926-13.121 6.786 17.383-.7 31.49 6.494 8.271 6.479z" fill="#fff"/><path d="m341.221 119.787 1.216-6.896a19.36 19.36 0 0 1 33.877-9.103l12.472 14.822a55.279 55.279 0 0 0 12.138 10.735l30.525 19.866-5.385 13.31 4.412-.029a11.534 11.534 0 0 1 8.699 3.873l.128.144a21.616 21.616 0 0 0 9.71 6.273l12.014 3.754a19.515 19.515 0 0 1 15.953 16.622l2.583 26.673 16.048-76.842 12.107-77.164L379.85 43.277c-15.771-2.781-31.249 6.217-36.637 21.298l-9.746 27.279z" fill="#36f"/><g fill="#006"><path d="m394.269 206.678.458-2.026c.417-1.848-1.388-3.419-3.161-2.749l-6.624 2.503zM429.565 70.76l-41.283-7.279c-19.889-3.507-38.856 9.773-42.363 29.663l-7.383 41.869-12.164-37.164 18.18-51.738 75.157-8.484zm29.308 132.177a44.22 44.22 0 0 1-7.676-.673l-.371-.065a33.326 33.326 0 0 1-22.416-15.097 2.856 2.856 0 0 1-.149-.271l-4.83-10.116a22.5 22.5 0 0 1-1.864-13.679 22.766 22.766 0 0 1 3.806-9.132l2.405-3.403c.128-.181.277-.345.445-.489a22.005 22.005 0 0 1 18.235-5.008l41.073 7.242c3.997.705 7.855 2 11.468 3.849l7.228 3.699a2.704 2.704 0 0 1 1.431 2.878l-1.824 10.347a2.701 2.701 0 0 1-.72 1.411l-14.602 15.086a44.008 44.008 0 0 1-31.639 13.421zm-25.796-18.58a27.903 27.903 0 0 0 18.688 12.514l.371.065a38.619 38.619 0 0 0 34.49-11.184l14.026-14.49 1.333-7.562-5.45-2.789a35.199 35.199 0 0 0-9.942-3.337l-41.073-7.242a16.599 16.599 0 0 0-13.521 3.574l-2.206 3.121a17.328 17.328 0 0 0-2.896 6.948 17.126 17.126 0 0 0 1.418 10.409z"/><path d="m501.464 176.376-16.141 11.463a31.156 31.156 0 0 0 7.555-15.463l1.351-7.664a5.996 5.996 0 0 0-2.887-6.222l-9.276-5.403 22.281 6.935zm-96.135-22.801 20.717 3.653 6.976-8.406-31.373-5.532z"/><path d="m421.488 163.578.401-2.276a4.807 4.807 0 0 0-3.899-5.568l-6.615-1.166.647-3.671 17.971 3.169-6.818 13.596zm-15.007 86.607-8.162-2.073-4.392-.774-8.38-.844a13.468 13.468 0 0 1-6.966-2.806l-8.439-6.625L380.472 248l12.743 3.369 2.166.55 2.225.224 12.912 1.3.215-.108 13.448-6.744-10.196 3.339a13.447 13.447 0 0 1-7.504.255z"/><ellipse cx="456.323" cy="166.779" rx="6.335" ry="8.035" transform="matrix(.1736 -.9848 .9848 .1736 212.8374 587.2084)"/><path d="m432.649 162.226 5.795-1.479 5.812-1.406c.98-.23 1.913-.478 2.931-.693a10.423 10.423 0 0 1 3.104-.107c2.016.312 3.945.659 5.921.989l5.882 1.078 2.941.539a10.37 10.37 0 0 1 5.452 2.781c.761.716 1.334 1.578 1.92 2.365l3.488 4.858-.381.285c-1.908-1.062-3.526-2.341-5.162-3.607-.393-.307-.796-.698-1.144-.962a6.61 6.61 0 0 0-.97-.592 8.975 8.975 0 0 0-1.971-.75c-.668-.167-1.273-.217-1.962-.236-1.003-.05-1.996-.159-2.992-.252-1.988-.203-3.961-.496-5.927-.825l-2.936-.567-1.459-.331c-.477-.11-1.046-.229-1.246-.298-.578-.156-1.184-.201-1.812-.216-.236-.019-.813.073-1.301.12l-1.504.133c-4.027.287-8.102.375-12.37-.365z"/></g><path d="m423.925 139.277 10.132-7.627 47.279 7.709 10.009 10.865-16.095-6.604-31.812-4.668-9.989 3.26z" fill="#36f"/><path d="m426.965 336.981-12 32-20 54-54-104z" fill="#fff"/><path d="M521.511 73.725c2.394 4.13 3.849 8.571 5.069 13.08 1.143 4.525 1.959 9.124 2.507 13.749.508 4.627.876 9.274.943 13.927.021 1.163.066 2.326.067 3.489l-.042 3.488c.003 2.321-.121 4.662-.303 6.978-.718 9.264-1.802 18.455-2.89 27.652-.555 4.596-1.111 9.191-1.725 13.779l-1.952 13.749-.991-.129c-2.075-9.59-2.737-18.972-2.997-28.276-.101-4.646-.085-9.273.054-13.86.084-2.296.118-4.579.266-6.853.095-2.263.199-4.532.338-6.735l.969-26.278c.11-4.397.224-8.808.249-13.308.011-4.505-.003-9.074-.407-13.917z" fill="#006"/><path d="M345.781 131.528c.985 1.394 2.053 6.904 4.561 8.641 1.269.879 5.53 2.204 7.129 2.446 5.748.868 10.936.641 16.173 3.409 3.99 2.109 11.015 6.2 15.075 7.187 1.82.442 2.376.815 4.097.315 4.019-1.168 6.297-2.692 10.536-3.018-1.414-3.527-2.344-6.58-5.347-9.217-3.637-3.193-12.451-5.013-17.503-6.105-7.924-1.713-15.917-3.808-23.922-5.253-2.534-.458-7.757-1.339-9.647.342.753-1.779-1.841 3.059-1.152 1.253z" fill="#36f"/><path d="M371.499 187.7c-1.918 0-3.845-.166-5.759-.504l-.371-.065a44.01 44.01 0 0 1-32.585-25.428l-8.562-19.169a2.706 2.706 0 0 1-.194-1.573l1.824-10.347a2.706 2.706 0 0 1 2.329-2.215l8.057-1.004a40.652 40.652 0 0 1 12.092.306l41.073 7.243a21.998 21.998 0 0 1 15.422 10.941c.108.192.192.398.251.612l1.096 4.021a22.775 22.775 0 0 1 .453 9.882 22.496 22.496 0 0 1-6.431 12.217l-7.999 7.854a2.657 2.657 0 0 1-.233.204 33.314 33.314 0 0 1-20.463 7.025zM329.5 141.083l8.224 18.413a38.61 38.61 0 0 0 28.583 22.306l.371.065a27.915 27.915 0 0 0 21.843-5.367l7.885-7.742a17.13 17.13 0 0 0 4.893-9.297 17.33 17.33 0 0 0-.345-7.52l-1.005-3.688a16.602 16.602 0 0 0-11.484-7.981l-41.074-7.243a35.299 35.299 0 0 0-10.484-.265l-6.075.757z" fill="#006"/><path d="m326.988 145.612 11.247 16.292a31.146 31.146 0 0 1-1.81-17.115l1.351-7.664a5.995 5.995 0 0 1 4.84-4.859l10.564-1.905-23.309-1.104zm98.135 11.453-20.717-3.653-3.68-10.284 31.373 5.532z" fill="#006"/><path d="m406.518 160.938.401-2.276a4.808 4.808 0 0 1 5.568-3.899l6.615 1.166.647-3.671-17.971-3.169 1.757 15.107z" fill="#006"/><ellipse cx="370.077" cy="149.985" fill="#006" rx="6.335" ry="8.035" transform="matrix(.1736 -.9848 .9848 .1736 158.1071 488.3945)"/><path d="M390.619 154.201c-4.264-.765-8.062-2.241-11.749-3.888l-1.368-.639c-.443-.211-.954-.495-1.182-.558-.596-.201-1.181-.366-1.777-.417-.211-.003-.787-.087-1.272-.146l-1.484-.188-2.953-.471a92.707 92.707 0 0 1-5.852-1.251c-.967-.254-1.938-.491-2.897-.787-.654-.218-1.24-.378-1.925-.45a9.01 9.01 0 0 0-2.109.03 6.576 6.576 0 0 0-1.113.225c-.417.13-.931.359-1.404.513-1.97.629-3.928 1.279-6.084 1.624l-.261-.398 4.939-3.373c.82-.539 1.653-1.153 2.613-1.566a10.38 10.38 0 0 1 6.074-.75l2.948.5 5.896 1c1.97.366 3.901.699 5.902 1.096 1.012.241 1.986.634 2.88 1.162.883.55 1.675 1.102 2.517 1.653l4.981 3.309 4.94 3.372zm-18.518-99.915 16.759 36.277a67.08 67.08 0 0 0 21.516 26.172l47.222 34.246-13.203-23.031-11.728-39.43 21.448 34.817a47.49 47.49 0 0 0 9.297 10.949l29.733 25.813 16.807-95.315-90.222-20.988-62.364-2.669zm60.754 178.101-8.629 1.233-10.019-3.177a8.627 8.627 0 0 0-2.571-.404l-12.402-.054-7.992-3.441a8.637 8.637 0 0 0-2.686-.673l-13.313-1.124-7.161-4.047a2 2 0 0 0-2.417.346l-5.539 5.689.646-.612a5.551 5.551 0 0 1 5.789-1.159l7.502 5.588 23.841 6.08 24.483 2.441 4.429-.828 5.077-1.453a5.533 5.533 0 0 1 4.664 2.884l.424.783-1.92-6.647a2.004 2.004 0 0 0-2.206-1.425zm194.076 74.594h60v80h-60z" fill="#006"/><path d="m633.901 267.65-9.92 14.341a18.213 18.213 0 0 1-17.174 7.719l-17.371-2.109-15.085-12.334a19.135 19.135 0 0 0-19.712-2.748l-4.683 2.026c-2.031.879-2.444 3.578-.769 5.024l12.689 10.956 2.55 5.056a27.207 27.207 0 0 0 8.904 10.184l33.215 22.776 37.798 15.087a33.794 33.794 0 0 0 12.651 2.408l6.872-.024 10.029 37.431 52.278-9.374z" fill="#fff"/><path d="m662.704 216.651-33.867 18.499.891 52.308 48.256 52.848 57.239-5.857 3.051-28.912a58.531 58.531 0 0 0-1.28-19.745l-14.886-62.282-41.737-8.336z" fill="#fff"/><path d="m735.14 310.415 8.814 93.989-72.806 1.67-5.959-86.222zM610.383 159.23l-4.595-4.364a4.903 4.903 0 0 0-5.825-.693l-.671.387a4.901 4.901 0 0 0-2.432 4.726l.639 6.527a37.467 37.467 0 0 0 3.834 13.216l4.755 9.427 8.567 24.469 14.549 28.531 17.87-9.486-15.18-29.471-10.759-22.577zm62.306-19.137-3.55-5.249a4.903 4.903 0 0 0-5.54-1.928l-.738.233a4.904 4.904 0 0 0-3.391 4.094l-.778 6.512a37.455 37.455 0 0 0 .906 13.731l2.619 10.229 3.111 25.738 8.081 30.99 19.49-5.426-8.496-32.044-5.658-24.361zm36.747 19.767-2.757-4.548a4.903 4.903 0 0 0-9.027 1.719l-.814 4.785a37.443 37.443 0 0 0 .223 13.759l1.751 8.592 1.643 23.224 5.866 28.157 17.724-3.998-6.191-29.121-3.989-22.103zm-82.566-21.775-5.539-5.261a4.903 4.903 0 0 0-5.825-.693l-1.528.88a4.903 4.903 0 0 0-2.432 4.726l.851 8.694a37.467 37.467 0 0 0 3.834 13.216l5.785 11.469 9.682 27.655 16.443 32.246 20.197-10.721-17.157-33.308-12.159-25.516z" fill="#fff"/><path d="M667.487 375.907c-1.133 85.939-22.804 191.519 7.548 276.336 11.882 33.205 47.892 99.302 82.643 65.953 20.409-19.586 40.898-89.638 42.794-118.337 2.962-44.856-45.27-208.041-57.078-239.155-15.127 18.352-46.626 23.405-75.907 15.203z" fill="#006"/><path d="M697.216 370.374c-5.164-.248-20.605-2.202-29.07-6.318l.326 16.079c7.297 2.37 20.37 2.979 27.361 2.458 14.989-1.117 28.301-7.17 40.88-15.125-10.26 4.685-27.964 3.461-39.497 2.906zm-56.982-100.552c17.486-.931 37.263 11.886 42.353 21.227 3.735 6.854 6.697 11.825 9.249 21.458 3.966-16.077 8.565-28.973 18.799-42.189-22.894 5.585-72.615-16.978-70.401-.496z" fill="#36f"/><path d="M62.541 727.512h184.08l11.312-6h96.896c4.617-1.171 8.394 3.675 11.116 2.56-6.364-23.469-15.839-64.519-18.365-73.846-84.844-13.721-171.649-54.107-260-36.52-24.52 4.881-70.611 5.78-81.739 33.346-4.323 10.708-7.815 21.99-4.565 38.001 3.183 15.68 30.655 39.928 61.265 42.459z" fill="#006"/><path d="m629.586 726.175-382.967 1.337c-9.706.034-17.555-8.158-17.532-18.296l.508-219.765c.023-10.139 7.911-18.385 17.617-18.419l382.967-1.337c9.706-.034 17.555 8.158 17.532 18.296l-.508 219.765c-.024 10.139-7.911 18.385-17.617 18.419z" fill="#fff"/><ellipse cx="438.405" cy="595.773" fill="#36f" rx="34.604" ry="27.538" transform="matrix(.9999 -.0135 .0135 .9999 -8.0095 5.9777)"/><ellipse cx="445.08" cy="602.704" fill="#fff" rx="34.604" ry="27.538" transform="matrix(.9999 -.0135 .0135 .9999 -8.1026 6.0686)"/></svg></g><g transform="translate(46.0 848.0) rotate(0.0 454.0 31.0) scale(0.9995255556008106 1.0023117836299853)"><svg width="908.431" height="61.857" viewBox="0 0 908.431 61.857"><path d="M879.215 15.948h-850v22.778s420.601-3.004 560.763 0c155.44 3.331 250.887 5.277 289.237 23.131z" fill="#006"/><path d="M0 0h908.431v18.926H0z" fill="#fff"/></svg></g></svg>