<svg xmlns="http://www.w3.org/2000/svg" x="0px" y="0px" width="100" height="100" viewBox="0,0,256,256">
<g fill="#ffffff" fill-rule="evenodd" stroke="none" stroke-width="1" stroke-linecap="butt" stroke-linejoin="miter" stroke-miterlimit="10" stroke-dasharray="" stroke-dashoffset="0" font-family="none" font-weight="none" font-size="none" text-anchor="none" style="mix-blend-mode: normal"><g transform="scale(10.66667,10.66667)"><path d="M7,1.25c-3.176,0 -5.75,2.574 -5.75,5.75v10c0,3.176 2.574,5.75 5.75,5.75h10c3.176,0 5.75,-2.574 5.75,-5.75v-10c0,-3.176 -2.574,-5.75 -5.75,-5.75zM7,2.75h10c2.347,0 4.25,1.903 4.25,4.25v10c0,2.347 -1.903,4.25 -4.25,4.25h-10c-2.347,0 -4.25,-1.903 -4.25,-4.25v-10c0,-2.347 1.903,-4.25 4.25,-4.25zM17.75,5c-0.69036,0 -1.25,0.55964 -1.25,1.25c0,0.69036 0.55964,1.25 1.25,1.25c0.69036,0 1.25,-0.55964 1.25,-1.25c0,-0.69036 -0.55964,-1.25 -1.25,-1.25zM12,6.75c-2.898,0 -5.25,2.352 -5.25,5.25c0,2.898 2.352,5.25 5.25,5.25c2.898,0 5.25,-2.352 5.25,-5.25c0,-2.898 -2.352,-5.25 -5.25,-5.25zM12,8.25c2.07,0 3.75,1.68 3.75,3.75c0,2.07 -1.68,3.75 -3.75,3.75c-2.07,0 -3.75,-1.68 -3.75,-3.75c0,-2.07 1.68,-3.75 3.75,-3.75z"></path></g></g>
</svg>